<svg xmlns="http://www.w3.org/2000/svg" viewBox="0 0 204 54"><defs><style>.cls-1{fill:#fff;stroke:#231f20;stroke-miterlimit:10;}</style></defs><title>Asset 1</title><g id="Layer_2" data-name="Layer 2"><g id="Layer_1-2" data-name="Layer 1"><path class="cls-1" d="M.5,12.16A11.66,11.66,0,0,1,12.16.5H82.5v17h-52v6h52v6h-52v6h52v18H12.2a11.64,11.64,0,0,1-8.3-3.41A11.67,11.67,0,0,1,.5,41.74Z"/><path class="cls-1" d="M114.5,33.19q0,5.31-5.39,5.31H92.81q-5.31,0-5.31-5.31V19.88A5.28,5.28,0,0,1,89,16a5.22,5.22,0,0,1,3.84-1.45h16.3a5.22,5.22,0,0,1,4,1.49,5.36,5.36,0,0,1,1.44,3.89Z"/><path class="cls-1" d="M203.5,41.84A11.66,11.66,0,0,1,191.84,53.5H121.5v-24h53v-6h-53V.5h70.34A11.66,11.66,0,0,1,203.5,12.16Z"/></g></g></svg>